<?xml version="1.0" encoding="iso-8859-1"?>
<!-- Generator: Adobe Illustrator 19.0.0, SVG Export Plug-In . SVG Version: 6.00 Build 0)  -->
<svg version="1.1" id="Layer_1" xmlns="http://www.w3.org/2000/svg" xmlns:xlink="http://www.w3.org/1999/xlink" x="0px" y="0px"
	 viewBox="0 0 507.661 507.661" style="enable-background:new 0 0 507.661 507.661;" xml:space="preserve">
<g transform="translate(1 1)">
	<g>
		<g>
			<path d="M347.42,377.359c-4.339-1.736-9.546,1.736-10.414,6.075c-5.207,24.298-18.224,46.861-36.447,65.085
				c-53.803,53.803-142.319,53.803-196.122,0c-53.803-53.803-53.803-142.319,0-196.122c53.803-53.803,142.319-53.803,196.122-0.868
				c9.546,8.678,17.356,19.092,23.431,30.373c2.603,4.339,7.81,6.075,12.149,3.471s6.075-7.81,3.471-12.149
				c-6.942-12.149-15.62-23.431-26.034-33.844c-59.843-59-154.884-60.69-215.955-5.08l-35.706-35.706l24.298-24.298
				c3.471-3.471,3.471-8.678,0-12.149s-8.678-3.471-12.149,0l-24.298,24.298l-15.62-15.62c-3.471-3.471-8.678-3.471-12.149,0
				c-3.471,3.471-3.471,8.678,0,12.149l15.62,15.62l-24.298,24.298c-3.471,3.471-3.471,8.678,0,12.149
				c1.736,1.736,3.471,2.603,6.075,2.603c1.736,0,4.339-0.868,6.075-2.603l24.298-24.298l35.85,35.85
				c-53.974,61.896-51.757,155.646,6.672,214.076c30.373,30.373,70.292,45.993,110.21,45.993s79.837-14.753,109.342-45.125
				c20.827-20.827,34.712-45.993,41.654-73.763C355.231,383.434,351.759,378.227,347.42,377.359z"/>
			<path d="M486.268-1h-60.746c-5.207,0-8.678,3.471-8.678,8.678s3.471,8.678,8.678,8.678h39.051l-51.873,51.873
				c-61.891-54.39-155.964-52.307-214.54,6.269c-22.563,22.563-38.183,51.2-43.39,83.308c-0.868,5.207,2.603,9.546,6.942,10.414
				c5.207,0.868,9.546-2.603,10.414-6.942c4.339-27.769,18.224-53.803,38.183-73.763c53.803-53.803,142.319-53.803,196.99-0.868
				c53.803,53.803,53.803,142.319,0,196.122c-53.803,53.803-142.319,53.803-196.122,0c-9.546-9.546-18.224-19.959-24.298-32.108
				c-2.603-4.339-7.81-6.075-12.149-3.471s-6.075,7.81-3.471,12.149c6.942,13.017,16.488,26.034,26.902,36.447
				c30.373,30.373,70.292,45.993,110.21,45.993s79.837-15.62,111.078-45.993c58.854-59.695,60.687-154.417,5.498-215.504
				l52.645-52.645v40.786c0,5.207,3.471,8.678,8.678,8.678c5.207,0,8.678-3.471,8.678-8.678V7.678
				C494.946,2.471,491.475-1,486.268-1z"/>
		</g>
	</g>
</g>
<g>
</g>
<g>
</g>
<g>
</g>
<g>
</g>
<g>
</g>
<g>
</g>
<g>
</g>
<g>
</g>
<g>
</g>
<g>
</g>
<g>
</g>
<g>
</g>
<g>
</g>
<g>
</g>
<g>
</g>
</svg>
