<?xml version="1.0" encoding="iso-8859-1"?>
<!-- Generator: Adobe Illustrator 19.0.0, SVG Export Plug-In . SVG Version: 6.00 Build 0)  -->
<svg version="1.1" id="Layer_1" xmlns="http://www.w3.org/2000/svg" xmlns:xlink="http://www.w3.org/1999/xlink" x="0px" y="0px"
	 viewBox="0 0 491.52 491.52" style="enable-background:new 0 0 491.52 491.52;" xml:space="preserve">
<g>
	<g>
		<path d="M440.32,194.559c-5.234,0-10.324,0.886-15.273,2.456l-46.749-88.322c3.473-3.272,6.535-7.019,9.036-11.344
			c14.115-24.41,5.74-55.81-18.67-69.98l-0.035-0.02c-11.865-6.84-25.705-8.63-38.925-5.07c-13.19,3.57-24.19,12.05-30.925,23.81
			c-1.816,3.092-3.211,6.383-4.322,9.79h-97.396c-1.106-3.393-2.494-6.671-4.297-9.75c-6.79-11.82-17.78-20.29-30.95-23.85
			c-13.25-3.58-27.065-1.78-38.96,5.09c-24.41,14.17-32.785,45.57-18.67,69.99c2.514,4.341,5.589,8.098,9.031,11.344l-46.742,88.309
			c-4.944-1.567-10.037-2.454-15.274-2.454c-28.23,0-51.2,22.97-51.2,51.2c0,28.23,22.97,51.2,51.2,51.2
			c5.236,0,10.327-0.885,15.271-2.449l46.753,88.322c-3.475,3.275-6.538,7.024-9.039,11.347c-14.11,24.4-5.735,55.8,18.705,70
			c7.885,4.54,16.625,6.86,25.48,6.86c4.49,0,9.01-0.6,13.46-1.8c13.185-3.56,24.18-12.05,30.91-23.8
			c1.816-3.092,3.211-6.383,4.322-9.79h97.393c1.105,3.394,2.487,6.661,4.271,9.7c6.785,11.84,17.78,20.33,30.965,23.89
			c4.45,1.2,8.965,1.8,13.45,1.8c8.865,0,17.615-2.32,25.525-6.88c24.405-14.18,32.78-45.58,18.67-69.99
			c-2.496-4.311-5.645-7.935-9.11-11.203l46.823-88.456c4.94,1.563,10.033,2.448,15.273,2.448c28.23,0,51.2-22.97,51.2-51.2
			C491.52,217.529,468.55,194.559,440.32,194.559z M312.63,67.549l0.004-0.024c0.562-3.994,1.839-7.72,3.861-11.166
			c4.065-7.09,10.65-12.17,18.55-14.31c2.67-0.72,5.38-1.07,8.07-1.07c5.31,0,10.55,1.38,15.275,4.1
			c14.655,8.52,19.685,27.37,11.215,42.02c-2.48,4.29-5.745,7.69-9.96,10.29c-9.675,6.35-21.925,6.69-31.955,0.93
			c-1.362-0.789-2.646-1.668-3.847-2.626c-7.205-5.75-11.422-14.361-11.516-23.53C312.313,70.637,312.411,69.095,312.63,67.549z
			 M133.11,45.089c4.735-2.72,9.98-4.11,15.295-4.11c2.69,0,5.4,0.35,8.07,1.07c7.9,2.14,14.485,7.22,18.55,14.31l0.055,0.09
			c1.97,3.36,3.25,7.09,3.81,11.1c1.75,12.38-4.165,24.46-15.035,30.75c-2.512,1.444-5.161,2.507-7.877,3.187
			c-0.196,0.049-0.401,0.02-0.598,0.065c-7.982,1.83-16.484,0.449-23.761-4.332c-3.96-2.43-7.225-5.83-9.705-10.11
			C113.44,72.449,118.48,53.589,133.11,45.089z M66.202,272.547c-4.736,2.604-9.783,3.932-15.002,3.932
			c-16.94,0-30.72-13.78-30.72-30.72s13.78-30.72,30.72-30.72c5.215,0,10.27,1.33,14.985,3.93c9.705,5.41,15.735,15.68,15.735,26.79
			C81.92,256.872,75.896,267.134,66.202,272.547z M178.89,423.979l-0.004,0.024c-0.562,3.994-1.839,7.72-3.861,11.166
			c-4.06,7.09-10.645,12.17-18.54,14.3c-7.945,2.12-16.245,1.06-23.34-3.01c-14.66-8.53-19.7-27.38-11.23-42.03
			c2.475-4.28,5.745-7.7,9.96-10.3c2.325-1.522,4.811-2.656,7.367-3.485c0.144-0.046,0.282-0.117,0.426-0.161
			c2.466-0.759,5.009-1.151,7.562-1.266c0.247-0.011,0.493-0.049,0.741-0.054c1.873-0.037,3.733,0.299,5.591,0.609
			c0.864,0.145,1.742,0.119,2.596,0.34c2.352,0.606,4.63,1.579,6.834,2.759c0.273,0.146,0.573,0.193,0.843,0.348
			c6.808,3.943,11.668,10.136,13.93,17.25c0.388,1.221,0.66,2.478,0.892,3.746c0.039,0.21,0.114,0.41,0.148,0.622
			C179.284,417.808,179.326,420.884,178.89,423.979z M358.41,446.439c-7.13,4.1-15.425,5.17-23.375,3.03
			c-7.895-2.13-14.48-7.21-18.595-14.39c-1.97-3.36-3.25-7.09-3.81-11.1c-1.745-12.38,4.165-24.46,15.035-30.75
			c2.445-1.412,5.026-2.427,7.661-3.112c1.001-0.259,2.028-0.244,3.042-0.399c1.701-0.261,3.399-0.591,5.111-0.56
			c0.311,0.006,0.62,0.053,0.931,0.068c2.5,0.123,4.99,0.501,7.406,1.243c0.181,0.055,0.352,0.143,0.532,0.202
			c2.531,0.83,4.994,1.949,7.298,3.459l0.25,0.164c3.967,2.439,7.236,5.858,9.71,10.126
			C378.075,419.079,373.035,437.929,358.41,446.439z M389.547,252.091c0.082,0.656,0.216,1.294,0.323,1.943
			c0.236,1.438,0.515,2.86,0.871,4.262c0.182,0.717,0.385,1.423,0.598,2.131c0.405,1.35,0.868,2.672,1.381,3.98
			c0.252,0.641,0.49,1.285,0.767,1.915c0.677,1.542,1.44,3.039,2.265,4.505c0.186,0.331,0.339,0.677,0.533,1.004
			c1.069,1.805,2.251,3.537,3.536,5.201c0.246,0.319,0.526,0.609,0.779,0.922c1.061,1.309,2.176,2.571,3.366,3.773
			c0.444,0.448,0.91,0.871,1.371,1.304c0.586,0.549,1.131,1.136,1.744,1.659l-46.18,87.23c-0.599-0.227-1.217-0.374-1.822-0.578
			c-0.693-0.232-1.383-0.458-2.082-0.66c-1.511-0.438-3.034-0.789-4.571-1.082c-0.554-0.106-1.102-0.243-1.659-0.33
			c-2.134-0.334-4.279-0.556-6.434-0.615c-0.014-0.001-0.028,0.001-0.042,0.001c-2.111-0.056-4.222,0.054-6.329,0.263
			c-0.567,0.056-1.128,0.154-1.693,0.229c-1.576,0.21-3.139,0.486-4.698,0.846c-0.647,0.149-1.287,0.308-1.929,0.482
			c-1.533,0.417-3.044,0.919-4.546,1.482c-0.569,0.214-1.142,0.399-1.706,0.634c-2.024,0.843-4.021,1.783-5.96,2.899
			c-2.086,1.207-4.03,2.572-5.89,4.021c-0.587,0.457-1.122,0.957-1.686,1.436c-1.236,1.051-2.426,2.137-3.546,3.288
			c-0.581,0.598-1.139,1.207-1.689,1.831c-1.029,1.167-1.989,2.378-2.903,3.626c-0.461,0.63-0.936,1.243-1.367,1.892
			c-1.032,1.556-1.959,3.168-2.812,4.823c-0.196,0.379-0.434,0.734-0.621,1.119c-0.984,2.034-1.813,4.138-2.518,6.289
			c-0.217,0.663-0.364,1.346-0.554,2.018c-0.436,1.542-0.822,3.096-1.111,4.681c-0.151,0.829-0.263,1.662-0.372,2.501
			c-0.095,0.722-0.258,1.428-0.321,2.156h-92.56c-0.064-0.73-0.227-1.439-0.322-2.163c-0.11-0.833-0.219-1.661-0.37-2.484
			c-0.29-1.592-0.678-3.154-1.117-4.703c-0.189-0.667-0.334-1.344-0.549-2.003c-0.705-2.149-1.533-4.252-2.516-6.285
			c-0.197-0.407-0.45-0.783-0.658-1.185c-0.84-1.625-1.749-3.21-2.763-4.739c-0.448-0.676-0.944-1.315-1.424-1.97
			c-0.893-1.218-1.831-2.4-2.834-3.54c-0.568-0.644-1.143-1.273-1.744-1.89c-1.101-1.131-2.272-2.198-3.486-3.233
			c-0.578-0.492-1.128-1.004-1.731-1.474c-1.863-1.452-3.811-2.821-5.901-4.031c-1.919-1.102-3.894-2.034-5.896-2.869
			c-0.654-0.274-1.321-0.491-1.982-0.736c-1.379-0.51-2.764-0.973-4.169-1.359c-0.771-0.213-1.541-0.403-2.317-0.579
			c-1.352-0.306-2.71-0.542-4.076-0.734c-0.774-0.11-1.541-0.239-2.318-0.313c-1.565-0.148-3.131-0.195-4.699-0.196
			c-0.811-0.002-1.618-0.005-2.428,0.032c-1.716,0.081-3.427,0.232-5.128,0.489c-0.984,0.147-1.948,0.378-2.922,0.583
			c-1.049,0.222-2.093,0.45-3.129,0.74c-1.05,0.292-2.083,0.629-3.116,0.991c-0.418,0.147-0.849,0.244-1.264,0.402l-46.18-87.23
			c0.594-0.506,1.121-1.075,1.689-1.606c0.497-0.465,0.998-0.921,1.475-1.403c1.14-1.155,2.208-2.368,3.228-3.621
			c0.292-0.359,0.614-0.693,0.896-1.059c1.27-1.647,2.44-3.364,3.499-5.151c0.216-0.365,0.388-0.753,0.596-1.122
			c0.801-1.43,1.544-2.888,2.206-4.391c0.282-0.643,0.526-1.299,0.782-1.953c0.508-1.296,0.967-2.607,1.369-3.945
			c0.214-0.714,0.419-1.425,0.602-2.149c0.354-1.399,0.632-2.818,0.868-4.252c0.107-0.65,0.241-1.29,0.323-1.947
			c0.261-2.088,0.427-4.196,0.427-6.332c0-2.136-0.167-4.244-0.427-6.331c-0.082-0.656-0.216-1.294-0.323-1.944
			c-0.236-1.436-0.515-2.857-0.87-4.259c-0.182-0.719-0.387-1.427-0.599-2.136c-0.404-1.345-0.866-2.664-1.377-3.966
			c-0.253-0.646-0.494-1.294-0.773-1.929c-0.672-1.529-1.429-3.014-2.246-4.468c-0.193-0.343-0.352-0.702-0.552-1.04
			c-1.067-1.799-2.246-3.527-3.526-5.186c-0.255-0.33-0.546-0.631-0.809-0.955c-1.051-1.294-2.156-2.544-3.333-3.735
			c-0.452-0.456-0.925-0.887-1.395-1.327c-0.581-0.544-1.121-1.126-1.729-1.644l46.18-87.24c0.764,0.291,1.55,0.487,2.323,0.739
			c0.657,0.214,1.306,0.439,1.969,0.626c1.983,0.558,3.985,1.014,6.009,1.324c0.151,0.023,0.299,0.067,0.45,0.089
			c2.174,0.313,4.362,0.447,6.556,0.474c0.218,0.003,0.434,0.047,0.653,0.047c0.514,0,1.026-0.085,1.539-0.101
			c1.301-0.04,2.596-0.113,3.893-0.254c0.803-0.087,1.599-0.2,2.399-0.325c1.256-0.197,2.503-0.448,3.746-0.741
			c0.788-0.185,1.572-0.366,2.354-0.589c1.31-0.374,2.6-0.831,3.887-1.314c0.673-0.252,1.353-0.468,2.018-0.749
			c1.926-0.815,3.824-1.726,5.673-2.788c2.087-1.208,4.032-2.574,5.893-4.023c0.582-0.453,1.112-0.948,1.671-1.422
			c1.245-1.058,2.443-2.152,3.57-3.311c0.573-0.589,1.123-1.191,1.666-1.805c1.04-1.177,2.01-2.399,2.931-3.661
			c0.452-0.619,0.919-1.221,1.343-1.858c1.052-1.586,2.001-3.229,2.867-4.918c0.177-0.346,0.396-0.669,0.566-1.019
			c0.991-2.045,1.824-4.161,2.533-6.324c0.209-0.636,0.349-1.293,0.532-1.938c0.445-1.568,0.836-3.147,1.129-4.759
			c0.149-0.82,0.259-1.643,0.368-2.473c0.096-0.726,0.258-1.436,0.322-2.167h92.56c0.064,0.733,0.228,1.446,0.324,2.172
			c0.109,0.827,0.218,1.648,0.367,2.466c0.293,1.609,0.684,3.187,1.129,4.753c0.184,0.649,0.325,1.309,0.535,1.949
			c0.708,2.159,1.539,4.27,2.528,6.311c0.183,0.378,0.419,0.728,0.611,1.102c0.854,1.659,1.785,3.275,2.82,4.834
			c0.434,0.654,0.914,1.273,1.379,1.908c0.909,1.241,1.864,2.444,2.888,3.606c0.556,0.631,1.12,1.247,1.709,1.853
			c1.113,1.144,2.296,2.222,3.524,3.267c0.572,0.487,1.115,0.994,1.711,1.458c1.86,1.449,3.804,2.814,5.891,4.023
			c1.854,1.066,3.76,1.979,5.693,2.795c0.65,0.275,1.313,0.484,1.97,0.731c1.299,0.487,2.601,0.946,3.924,1.323
			c0.794,0.227,1.591,0.41,2.392,0.597c1.206,0.282,2.414,0.525,3.632,0.717c0.866,0.137,1.729,0.258,2.598,0.35
			c1.154,0.121,2.307,0.184,3.464,0.225c0.626,0.023,1.251,0.122,1.876,0.122c0.27,0,0.537-0.054,0.807-0.058
			c1.742-0.031,3.48-0.163,5.212-0.374c1.035-0.124,2.055-0.309,3.081-0.498c1.376-0.254,2.746-0.528,4.102-0.898
			c0.997-0.271,1.971-0.606,2.952-0.939c0.578-0.196,1.169-0.336,1.741-0.554l46.18,87.24c-0.59,0.503-1.114,1.069-1.678,1.596
			c-0.503,0.469-1.009,0.93-1.491,1.418c-1.13,1.145-2.188,2.347-3.201,3.588c-0.301,0.369-0.633,0.713-0.923,1.09
			c-1.266,1.643-2.433,3.356-3.489,5.136c-0.224,0.376-0.402,0.776-0.616,1.158c-0.794,1.419-1.532,2.864-2.188,4.354
			c-0.284,0.647-0.529,1.306-0.787,1.964c-0.508,1.294-0.966,2.604-1.367,3.941c-0.214,0.711-0.418,1.419-0.601,2.141
			c-0.355,1.402-0.634,2.823-0.87,4.259c-0.107,0.649-0.241,1.288-0.323,1.944c-0.261,2.088-0.427,4.196-0.427,6.331
			C389.12,247.895,389.287,250.003,389.547,252.091z M440.32,276.479c-5.225,0-10.28-1.33-14.985-3.92
			c-9.705-5.41-15.735-15.68-15.735-26.8c0-11.102,6.024-21.365,15.718-26.777c4.746-2.614,9.793-3.943,15.002-3.943
			c16.94,0,30.72,13.78,30.72,30.72S457.26,276.479,440.32,276.479z"/>
	</g>
</g>
<g>
	<g>
		<path d="M245.76,141.159l-117.68,66.57l10.08,17.82l15.44-8.734v110.864h51.2h81.92h51.2V216.815l15.44,8.734l10.08-17.82
			L245.76,141.159z M266.24,307.199h-40.96v-61.44h40.96V307.199z M317.44,307.199h-30.72v-81.92H204.8v81.92h-30.72v-101.97
			l71.68-40.55l71.68,40.55V307.199z"/>
	</g>
</g>
<g>
</g>
<g>
</g>
<g>
</g>
<g>
</g>
<g>
</g>
<g>
</g>
<g>
</g>
<g>
</g>
<g>
</g>
<g>
</g>
<g>
</g>
<g>
</g>
<g>
</g>
<g>
</g>
<g>
</g>
</svg>
