<?xml version="1.0" encoding="iso-8859-1"?>
<!-- Generator: Adobe Illustrator 19.0.0, SVG Export Plug-In . SVG Version: 6.00 Build 0)  -->
<svg version="1.1" id="Layer_1" xmlns="http://www.w3.org/2000/svg" xmlns:xlink="http://www.w3.org/1999/xlink" x="0px" y="0px"
	 viewBox="0 0 512 512" style="enable-background:new 0 0 512 512;" xml:space="preserve">
<g>
	<g>
		<path d="M92.619,305.515h-1.045c-4.328,0-7.837,3.508-7.837,7.837c0,4.329,3.509,7.837,7.837,7.837h1.045
			c4.328,0,7.837-3.508,7.837-7.837C100.455,309.022,96.947,305.515,92.619,305.515z"/>
	</g>
</g>
<g>
	<g>
		<path d="M127.1,280.437h-1.045c-4.328,0-7.837,3.508-7.837,7.837c0,4.329,3.509,7.837,7.837,7.837h1.045
			c4.328,0,7.837-3.508,7.837-7.837C134.937,283.945,131.428,280.437,127.1,280.437z"/>
	</g>
</g>
<g>
	<g>
		<path d="M314.986,176.814l-0.739-0.738c-3.063-3.059-8.025-3.056-11.083,0.007c-3.058,3.063-3.054,8.025,0.007,11.083l0.739,0.738
			c1.53,1.529,3.534,2.292,5.538,2.292c2.007,0,4.015-0.766,5.545-2.299C318.051,184.835,318.047,179.873,314.986,176.814z"/>
	</g>
</g>
<g>
	<g>
		<path d="M282.479,163.52l-0.739-0.739c-3.061-3.059-8.023-3.059-11.083,0c-3.06,3.062-3.06,8.023,0,11.083l0.74,0.739
			c1.53,1.53,3.536,2.295,5.541,2.295c2.005,0,4.011-0.765,5.541-2.295C285.539,171.542,285.539,166.581,282.479,163.52z"/>
	</g>
</g>
<g>
	<g>
		<path d="M414.679,293.353h-1.045c-4.328,0-7.837,3.508-7.837,7.837s3.509,7.837,7.837,7.837h1.045
			c4.328,0,7.837-3.508,7.837-7.837S419.007,293.353,414.679,293.353z"/>
	</g>
</g>
<g>
	<g>
		<path d="M185.847,240.064h-1.045c-4.328,0-7.837,3.508-7.837,7.837c0,4.328,3.509,7.837,7.837,7.837h1.045
			c4.328,0,7.837-3.508,7.837-7.837C193.683,243.572,190.175,240.064,185.847,240.064z"/>
	</g>
</g>
<g>
	<g>
		<path d="M209.879,214.987h-1.045c-4.328,0-7.837,3.508-7.837,7.837c0,4.328,3.509,7.837,7.837,7.837h1.045
			c4.328,0,7.837-3.508,7.837-7.837C217.716,218.494,214.207,214.987,209.879,214.987z"/>
	</g>
</g>
<g>
	<g>
		<path d="M251.442,301.538c-3.058-3.063-8.02-3.066-11.083-0.007l-0.74,0.739c-3.063,3.058-3.066,8.021-0.007,11.082
			c1.531,1.534,3.538,2.3,5.545,2.3c2.003,0,4.007-0.764,5.538-2.291l0.74-0.739C254.497,309.563,254.501,304.6,251.442,301.538z"/>
	</g>
</g>
<g>
	<g>
		<path d="M332.594,248.629c-3.06-3.06-8.023-3.06-11.082,0l-0.739,0.739c-3.06,3.062-3.06,8.023,0,11.083
			c1.53,1.529,3.536,2.295,5.541,2.295c2.005,0,4.011-0.765,5.541-2.295l0.739-0.739
			C335.655,256.651,335.655,251.69,332.594,248.629z"/>
	</g>
</g>
<g>
	<g>
		<path d="M266.954,263.853c-3.06-3.059-8.023-3.059-11.082,0l-0.739,0.739c-3.061,3.062-3.061,8.023,0,11.083
			c1.53,1.529,3.535,2.295,5.541,2.295c2.005,0,4.011-0.765,5.541-2.295l0.739-0.739
			C270.014,271.875,270.014,266.914,266.954,263.853z"/>
	</g>
</g>
<g>
	<g>
		<path d="M287.642,288.975c-3.06-3.06-8.023-3.06-11.082,0l-0.739,0.739c-3.06,3.062-3.06,8.023,0,11.083
			c1.53,1.529,3.535,2.295,5.541,2.295c2.005,0,4.011-0.765,5.541-2.295l0.739-0.739
			C290.702,296.997,290.702,292.035,287.642,288.975z"/>
	</g>
</g>
<g>
	<g>
		<path d="M299.464,250.554c-3.06-3.059-8.023-3.059-11.083,0l-0.739,0.739c-3.06,3.062-3.06,8.023,0,11.083
			c1.531,1.53,3.537,2.295,5.542,2.295c2.005,0,4.011-0.765,5.541-2.295l0.739-0.739
			C302.524,258.576,302.524,253.614,299.464,250.554z"/>
	</g>
</g>
<g>
	<g>
		<path d="M493.93,329.849h-12.072c-0.218-4.133-3.629-7.419-7.816-7.419h-9.294l4.612-4.612h24.967
			c4.328,0,7.837-3.509,7.837-7.837c0-4.329-3.509-7.837-7.837-7.837h-9.293l9.93-9.93c3.06-3.062,3.06-8.023,0-11.083
			c-3.06-3.059-8.023-3.059-11.082,0l-9.93,9.93v-9.291c0-4.329-3.509-7.837-7.837-7.837c-4.328,0-7.837,3.508-7.837,7.837v21.872
			c-5.17-18.449-16.932-34.17-32.577-44.453c-0.318-15.754-8.883-29.551-21.542-37.228l2.415-2.415
			c4.548,3.097,9.915,4.763,15.539,4.763c7.397,0,14.35-2.881,19.579-8.11c10.797-10.796,10.798-28.363,0.001-39.161
			c-4.171-4.17-9.445-6.845-15.169-7.751c-0.918-5.673-3.585-11.001-7.736-15.153c-5.23-5.23-12.184-8.11-19.58-8.11
			s-14.35,2.881-19.579,8.11c-9.534,9.534-10.649,24.348-3.345,35.116l-9.983,9.983c-3.202-11.765-9.027-23.035-17.331-33.466
			c4.138-0.213,7.43-3.625,7.43-7.816c0-4.329-3.509-7.837-7.837-7.837h-9.294l4.612-4.612h24.968c4.328,0,7.837-3.508,7.837-7.837
			c0-4.329-3.509-7.837-7.837-7.837h-9.293l9.93-9.93c3.06-3.062,3.06-8.023,0-11.083c-3.06-3.059-8.023-3.059-11.082,0l-9.929,9.93
			v-9.292c0-4.329-3.509-7.837-7.837-7.837s-7.837,3.508-7.837,7.837v24.966l-4.611,4.611v-9.291c0-4.329-3.509-7.837-7.837-7.837
			c-4.328,0-7.837,3.508-7.837,7.837v5.786c-15.043-7.954-31.461-12.267-47.732-12.267c-14.221,0-27.642,3.356-39.287,9.634
			l-6.775-6.775c-3.061-3.059-8.023-3.059-11.083,0c-3.06,3.062-3.06,8.023,0,11.083l4.704,4.703
			c-1.456,1.245-2.88,2.528-4.239,3.888c-1.367,1.368-2.648,2.791-3.888,4.24l-34.657-34.657c-1.597-1.596-3.799-2.423-6.057-2.278
			c-2.253,0.148-4.332,1.261-5.705,3.054c-0.33,0.432-0.683,0.837-1.041,1.195c-4.685,4.685-12.311,4.686-16.996,0
			c-4.685-4.684-4.684-12.308,0.001-16.994c2.742-2.743,6.678-3.985,10.531-3.331c2.508,0.425,5.061-0.388,6.859-2.184
			c1.797-1.797,2.611-4.353,2.184-6.858c-0.656-3.853,0.588-7.79,3.331-10.532c4.685-4.685,12.308-4.685,16.994,0
			c2.27,2.27,3.519,5.287,3.519,8.497c0,3.21-1.25,6.228-3.51,8.489c-0.371,0.37-0.776,0.722-1.205,1.051
			c-1.792,1.373-2.905,3.453-3.054,5.706c-0.148,2.253,0.682,4.461,2.279,6.057l14.28,14.28c3.061,3.059,8.023,3.059,11.083,0
			c3.06-3.062,3.06-8.023,0-11.083l-8.96-8.959c3.097-4.549,4.762-9.916,4.762-15.54c0-7.397-2.88-14.35-8.11-19.58
			c-5.23-5.23-12.183-8.11-19.579-8.11c-7.397,0-14.35,2.881-19.579,8.11c-4.155,4.156-6.822,9.489-7.739,15.167
			c-5.678,0.916-11.011,3.584-15.166,7.737c-5.23,5.231-8.111,12.184-8.111,19.58c-0.001,7.396,2.88,14.35,8.111,19.58
			c9.531,9.531,24.34,10.643,35.115,3.344l31.413,31.412c-5.435,10.104-8.532,21.359-9.337,33.066
			c-7.29,3.134-14.008,7.347-19.963,12.43v-15.725c0-4.329-3.509-7.837-7.837-7.837s-7.837,3.508-7.837,7.837v9.292l-4.611-4.61
			V172.67c0-4.329-3.509-7.837-7.837-7.837c-4.328,0-7.837,3.508-7.837,7.837v9.294l-9.93-9.931c-3.06-3.059-8.023-3.059-11.082,0
			c-3.06,3.062-3.06,8.023,0,11.083l9.929,9.929h-9.291c-4.328,0-7.837,3.508-7.837,7.837c0,4.329,3.509,7.837,7.837,7.837h24.965
			l4.611,4.611h-9.291c-4.328,0-7.837,3.508-7.837,7.837s3.509,7.837,7.837,7.837h19.068c-3.64,6.253-6.447,13.048-8.254,20.238
			c-4.438-1.711-9.193-2.616-14.093-2.616c-10.467,0-20.307,4.076-27.706,11.476l-2.879,2.879
			c-6.041-2.97-12.733-4.547-19.675-4.547c-11.879,0-23.04,4.593-31.426,12.935c-8.401,8.352-13.025,19.475-13.025,31.321
			c0,7.139,1.694,14.007,4.869,20.171c-2.083,2.81-3.731,5.838-4.971,8.99H18.07c-9.964,0-18.07,8.088-18.07,18.03
			c0,37.253,26.468,68.451,61.649,75.936v11.645c0,10.082,8.203,18.286,18.286,18.286h352.131c10.082,0,18.286-8.203,18.286-18.286
			v-11.645C485.531,416.33,512,385.133,512,347.879C512,337.937,503.894,329.849,493.93,329.849z M445.504,324.758
			c0,1.716-0.094,3.409-0.233,5.091h-41.849c-0.307-11.385-4.884-22.035-12.991-30.101c-1.7-1.691-3.718-2.94-5.911-3.731
			c0.297-4.765,0.211-9.494-0.223-14.147c1.396,1.287,3.256,2.079,5.304,2.079h1.045c4.328,0,7.837-3.508,7.837-7.837
			s-3.509-7.837-7.837-7.837h-1.045c-2.892,0-5.413,1.572-6.77,3.903c-0.722-3.439-1.632-6.821-2.781-10.112
			c0.896-0.04,1.796-0.061,2.701-0.061C417.353,262.007,445.504,290.157,445.504,324.758z M217.011,303.806
			c1.274-17.468,9.522-34.258,24.084-48.821c17.976-17.975,41.482-28.285,64.491-28.285c17.834,0,34.027,6.373,45.597,17.943
			c14.043,14.044,19.689,33.796,17.44,54.185c-0.349,0.294-0.693,0.595-1.02,0.921l-30.256,30.101H237.84
			C234.5,318.738,226.932,309.424,217.011,303.806z M221.062,329.849h-51.57c1.369-2.832,3.206-5.45,5.493-7.743
			c5.389-5.402,12.556-8.378,20.256-8.378C206.536,313.76,216.343,320.336,221.062,329.849z M378.657,310.86
			c0.037-0.036,0.146-0.145,0.361-0.145c0.214,0,0.324,0.109,0.359,0.145c5.128,5.101,8.071,11.805,8.372,18.989H359.57
			L378.657,310.86z M408.453,250.68c-8.057-2.803-16.7-4.347-25.7-4.347c-1.017,0-2.026,0.027-3.032,0.066l12.834-12.833
			C399.969,236.771,405.789,242.998,408.453,250.68z M392.683,195.017c1.596-1.596,2.426-3.802,2.279-6.054
			c-0.147-2.252-1.258-4.331-3.048-5.704c-0.438-0.336-0.842-0.689-1.202-1.049c-4.685-4.684-4.685-12.308,0-16.994
			c2.269-2.27,5.287-3.519,8.496-3.519c3.21,0,6.228,1.25,8.497,3.52c2.742,2.742,3.987,6.679,3.331,10.53
			c-0.426,2.504,0.388,5.062,2.184,6.858c1.797,1.797,4.354,2.61,6.859,2.184c0.675-0.115,1.366-0.173,2.051-0.173
			c3.209,0,6.22,1.245,8.48,3.505c4.685,4.685,4.685,12.309,0,16.994c-2.269,2.271-5.287,3.52-8.497,3.52
			c-3.209,0-6.227-1.25-8.496-3.519c-0.363-0.364-0.715-0.766-1.047-1.2c-1.374-1.79-3.452-2.902-5.705-3.05
			c-2.242-0.148-4.458,0.683-6.054,2.279l-34.657,34.658c-1.24-1.449-2.52-2.873-3.887-4.241c-1.359-1.36-2.785-2.643-4.239-3.888
			L392.683,195.017z M219.185,156.871c11.57-11.57,27.764-17.942,45.598-17.942c23.01,0,46.517,10.31,64.493,28.286
			c13.584,13.583,21.671,29.108,23.732,45.31l-8.136,8.136c-11.644-6.279-25.066-9.635-39.287-9.635
			c-3.388,0-6.779,0.205-10.166,0.573c1.87-3.023,1.504-7.036-1.119-9.659l-0.739-0.739c-3.06-3.059-8.023-3.059-11.083,0
			c-3.061,3.062-3.061,8.023,0,11.083l0.739,0.739c0.194,0.194,0.395,0.374,0.603,0.543c-2.945,0.68-5.873,1.479-8.773,2.423
			c-14.365-15.995-35.179-26.083-58.318-26.083c-4.991,0-9.869,0.489-14.606,1.385C204.145,178.274,209.77,166.286,219.185,156.871z
			 M216.73,205.583c16.505,0,31.528,6.422,42.742,16.877c-5.637,2.865-11.083,6.251-16.276,10.096
			c-1.37-1.178-3.147-1.894-5.095-1.895l-1.046-0.001c-0.003,0-0.005,0-0.007,0c-4.325,0-7.833,3.505-7.837,7.829
			c-0.001,1.76,0.584,3.377,1.561,4.685c-0.251,0.247-0.51,0.481-0.759,0.729c-16.171,16.172-25.781,34.897-28.213,54.65
			c-2.128-0.321-4.303-0.492-6.516-0.498c-0.007,0-0.11,0-0.116,0c-10.054,0-19.586,3.346-27.35,9.495
			c-8.641-10.751-13.839-24.381-13.839-39.216C153.977,233.732,182.128,205.583,216.73,205.583z M109.954,269.182
			c4.44-4.44,10.343-6.886,16.623-6.886c4.209,0,8.237,1.122,11.781,3.184c-0.034,0.947-0.054,1.898-0.054,2.855
			c0,12.487,2.952,24.288,8.172,34.771c-0.029,0.274-0.046,0.552-0.046,0.834c-0.003,3.179,1.891,5.912,4.61,7.143
			c1.911,2.925,4.008,5.717,6.281,8.353c-1.973,3.263-3.492,6.763-4.556,10.414h-25.486c2.67-1.249,4.522-3.951,4.522-7.094
			c0-4.329-3.509-7.837-7.837-7.837h-1.044c-4.328,0-7.837,3.508-7.837,7.837c0,3.143,1.853,5.845,4.522,7.094H49.575
			c0.611-0.798,1.278-1.566,2.008-2.297L109.954,269.182z M55.944,280.477c5.429-5.399,12.664-8.374,20.373-8.374
			c2.589,0,5.119,0.349,7.549,1.001L48.6,308.37c-0.69-2.47-1.056-5.047-1.056-7.683C47.543,293.045,50.526,285.867,55.944,280.477z
			 M434.064,409.859h-74.619c-4.328,0-7.837,3.508-7.837,7.837c0,4.329,3.509,7.837,7.837,7.837h74.619
			c0.206,0,0.409-0.015,0.613-0.016v9.942c0,1.441-1.172,2.612-2.612,2.612H79.935c-1.44,0-2.612-1.171-2.612-2.612v-9.942
			c0.206,0.001,0.409,0.016,0.614,0.016h240.757c4.328,0,7.837-3.508,7.837-7.837c0-4.329-3.509-7.837-7.837-7.837H77.937
			c-34.332,0-62.263-27.804-62.263-61.98c0-1.299,1.075-2.356,2.397-2.356H493.93c1.322,0,2.397,1.057,2.397,2.356
			C496.327,382.055,468.395,409.859,434.064,409.859z"/>
	</g>
</g>
<g>
</g>
<g>
</g>
<g>
</g>
<g>
</g>
<g>
</g>
<g>
</g>
<g>
</g>
<g>
</g>
<g>
</g>
<g>
</g>
<g>
</g>
<g>
</g>
<g>
</g>
<g>
</g>
<g>
</g>
</svg>
